# Blender v2.91.2 OBJ File: ''
# www.blender.org
mtllib CurvePipe.mtl
o Torus
v 0.000000 0.000000 -1.250000
v 0.000000 0.125000 -1.216506
v 0.000000 0.216506 -1.125000
v 0.000000 0.250000 -1.000000
v 0.000000 0.216506 -0.875000
v 0.000000 0.125000 -0.783494
v 0.000000 0.000000 -0.750000
v 0.000000 -0.125000 -0.783494
v 0.000000 -0.216506 -0.875000
v 0.000000 -0.250000 -1.000000
v 0.000000 -0.216506 -1.125000
v 0.000000 -0.125000 -1.216506
v -0.163158 0.000000 -1.239306
v -0.158786 0.125000 -1.206099
v -0.146842 0.216506 -1.115375
v -0.130526 0.250000 -0.991445
v -0.114211 0.216506 -0.867514
v -0.102267 0.125000 -0.776791
v -0.097895 0.000000 -0.743584
v -0.102267 -0.125000 -0.776791
v -0.114211 -0.216506 -0.867514
v -0.130526 -0.250000 -0.991445
v -0.146842 -0.216506 -1.115375
v -0.158786 -0.125000 -1.206099
v -0.323524 0.000000 -1.207407
v -0.314855 0.125000 -1.175055
v -0.291171 0.216506 -1.086667
v -0.258819 0.250000 -0.965926
v -0.226467 0.216506 -0.845185
v -0.202783 0.125000 -0.756797
v -0.194114 0.000000 -0.724444
v -0.202783 -0.125000 -0.756797
v -0.226467 -0.216506 -0.845185
v -0.258819 -0.250000 -0.965926
v -0.291171 -0.216506 -1.086667
v -0.314855 -0.125000 -1.175055
v -0.478354 0.000000 -1.154849
v -0.465537 0.125000 -1.123905
v -0.430519 0.216506 -1.039364
v -0.382684 0.250000 -0.923880
v -0.334848 0.216506 -0.808395
v -0.299830 0.125000 -0.723854
v -0.287013 0.000000 -0.692910
v -0.299830 -0.125000 -0.723854
v -0.334848 -0.216506 -0.808395
v -0.382684 -0.250000 -0.923880
v -0.430519 -0.216506 -1.039364
v -0.465537 -0.125000 -1.123905
v -0.625000 0.000000 -1.082532
v -0.608253 0.125000 -1.053526
v -0.562500 0.216506 -0.974279
v -0.500000 0.250000 -0.866026
v -0.437500 0.216506 -0.757772
v -0.391747 0.125000 -0.678525
v -0.375000 0.000000 -0.649519
v -0.391747 -0.125000 -0.678525
v -0.437500 -0.216506 -0.757772
v -0.500000 -0.250000 -0.866026
v -0.562500 -0.216506 -0.974279
v -0.608253 -0.125000 -1.053526
v -0.760952 0.000000 -0.991692
v -0.740562 0.125000 -0.965119
v -0.684857 0.216506 -0.892522
v -0.608761 0.250000 -0.793353
v -0.532666 0.216506 -0.694184
v -0.476961 0.125000 -0.621587
v -0.456571 0.000000 -0.595015
v -0.476961 -0.125000 -0.621587
v -0.532666 -0.216506 -0.694184
v -0.608761 -0.250000 -0.793353
v -0.684857 -0.216506 -0.892522
v -0.740562 -0.125000 -0.965119
v -0.883884 0.000000 -0.883883
v -0.860200 0.125000 -0.860200
v -0.795495 0.216506 -0.795495
v -0.707107 0.250000 -0.707107
v -0.618719 0.216506 -0.618718
v -0.554014 0.125000 -0.554013
v -0.530330 0.000000 -0.530330
v -0.554014 -0.125000 -0.554013
v -0.618719 -0.216506 -0.618718
v -0.707107 -0.250000 -0.707107
v -0.795495 -0.216506 -0.795495
v -0.860200 -0.125000 -0.860200
v -0.991692 0.000000 -0.760952
v -0.965119 0.125000 -0.740562
v -0.892522 0.216506 -0.684857
v -0.793353 0.250000 -0.608761
v -0.694184 0.216506 -0.532666
v -0.621587 0.125000 -0.476961
v -0.595015 0.000000 -0.456571
v -0.621587 -0.125000 -0.476961
v -0.694184 -0.216506 -0.532666
v -0.793353 -0.250000 -0.608761
v -0.892522 -0.216506 -0.684857
v -0.965119 -0.125000 -0.740562
v -1.082532 0.000000 -0.625000
v -1.053525 0.125000 -0.608253
v -0.974278 0.216506 -0.562500
v -0.866025 0.250000 -0.500000
v -0.757772 0.216506 -0.437500
v -0.678525 0.125000 -0.391747
v -0.649519 0.000000 -0.375000
v -0.678525 -0.125000 -0.391747
v -0.757772 -0.216506 -0.437500
v -0.866025 -0.250000 -0.500000
v -0.974278 -0.216506 -0.562500
v -1.053525 -0.125000 -0.608253
v -1.154849 0.000000 -0.478354
v -1.123905 0.125000 -0.465537
v -1.039364 0.216506 -0.430519
v -0.923880 0.250000 -0.382683
v -0.808395 0.216506 -0.334848
v -0.723854 0.125000 -0.299830
v -0.692910 0.000000 -0.287013
v -0.723854 -0.125000 -0.299830
v -0.808395 -0.216506 -0.334848
v -0.923880 -0.250000 -0.382683
v -1.039364 -0.216506 -0.430519
v -1.123905 -0.125000 -0.465537
v -1.207407 0.000000 -0.323524
v -1.175055 0.125000 -0.314855
v -1.086667 0.216506 -0.291171
v -0.965926 0.250000 -0.258819
v -0.845185 0.216506 -0.226467
v -0.756797 0.125000 -0.202783
v -0.724444 0.000000 -0.194114
v -0.756797 -0.125000 -0.202783
v -0.845185 -0.216506 -0.226467
v -0.965926 -0.250000 -0.258819
v -1.086667 -0.216506 -0.291171
v -1.175055 -0.125000 -0.314855
v -1.239306 0.000000 -0.163158
v -1.206099 0.125000 -0.158786
v -1.115375 0.216506 -0.146842
v -0.991445 0.250000 -0.130526
v -0.867514 0.216506 -0.114211
v -0.776791 0.125000 -0.102267
v -0.743584 0.000000 -0.097895
v -0.776791 -0.125000 -0.102267
v -0.867514 -0.216506 -0.114211
v -0.991445 -0.250000 -0.130526
v -1.115375 -0.216506 -0.146842
v -1.206099 -0.125000 -0.158786
v -1.250000 0.000000 -0.000000
v -1.216506 0.125000 -0.000000
v -1.125000 0.216506 -0.000000
v -1.000000 0.250000 -0.000000
v -0.875000 0.216506 -0.000000
v -0.783494 0.125000 -0.000000
v -0.750000 0.000000 -0.000000
v -0.783494 -0.125000 -0.000000
v -0.875000 -0.216506 -0.000000
v -1.000000 -0.250000 -0.000000
v -1.125000 -0.216506 -0.000000
v -1.216506 -0.125000 -0.000000
vt 0.750000 0.500000
vt 0.750000 0.583333
vt 0.750000 0.666667
vt 0.750000 0.750000
vt 0.750000 0.833333
vt 0.750000 0.916667
vt 0.750000 0.000000
vt 0.750000 0.083333
vt 0.750000 0.166667
vt 0.750000 0.250000
vt 0.750000 0.333333
vt 0.750000 0.416667
vt 0.770833 0.500000
vt 0.770833 0.583333
vt 0.770833 0.666667
vt 0.770833 0.750000
vt 0.770833 0.833333
vt 0.770833 0.916667
vt 0.770833 1.000000
vt 0.750000 1.000000
vt 0.770833 0.000000
vt 0.770833 0.083333
vt 0.770833 0.166667
vt 0.770833 0.250000
vt 0.770833 0.333333
vt 0.770833 0.416667
vt 0.791667 0.500000
vt 0.791667 0.583333
vt 0.791667 0.666667
vt 0.791667 0.750000
vt 0.791667 0.833333
vt 0.791667 0.916667
vt 0.791667 1.000000
vt 0.791667 0.000000
vt 0.791667 0.083333
vt 0.791667 0.166667
vt 0.791667 0.250000
vt 0.791667 0.333333
vt 0.791667 0.416667
vt 0.812500 0.500000
vt 0.812500 0.583333
vt 0.812500 0.666667
vt 0.812500 0.750000
vt 0.812500 0.833333
vt 0.812500 0.916667
vt 0.812500 1.000000
vt 0.812500 0.000000
vt 0.812500 0.083333
vt 0.812500 0.166667
vt 0.812500 0.250000
vt 0.812500 0.333333
vt 0.812500 0.416667
vt 0.833333 0.500000
vt 0.833333 0.583333
vt 0.833333 0.666667
vt 0.833333 0.750000
vt 0.833333 0.833333
vt 0.833333 0.916667
vt 0.833333 1.000000
vt 0.833333 0.000000
vt 0.833333 0.083333
vt 0.833333 0.166667
vt 0.833333 0.250000
vt 0.833333 0.333333
vt 0.833333 0.416667
vt 0.854167 0.500000
vt 0.854167 0.583333
vt 0.854167 0.666667
vt 0.854167 0.750000
vt 0.854167 0.833333
vt 0.854167 0.916667
vt 0.854167 1.000000
vt 0.854167 0.000000
vt 0.854167 0.083333
vt 0.854167 0.166667
vt 0.854167 0.250000
vt 0.854167 0.333333
vt 0.854167 0.416667
vt 0.875000 0.500000
vt 0.875000 0.583333
vt 0.875000 0.666667
vt 0.875000 0.750000
vt 0.875000 0.833333
vt 0.875000 0.916667
vt 0.875000 1.000000
vt 0.875000 0.000000
vt 0.875000 0.083333
vt 0.875000 0.166667
vt 0.875000 0.250000
vt 0.875000 0.333333
vt 0.875000 0.416667
vt 0.895833 0.500000
vt 0.895833 0.583333
vt 0.895833 0.666667
vt 0.895833 0.750000
vt 0.895833 0.833333
vt 0.895833 0.916667
vt 0.895833 1.000000
vt 0.895833 0.000000
vt 0.895833 0.083333
vt 0.895833 0.166667
vt 0.895833 0.250000
vt 0.895833 0.333333
vt 0.895833 0.416667
vt 0.916667 0.500000
vt 0.916667 0.583333
vt 0.916667 0.666667
vt 0.916667 0.750000
vt 0.916667 0.833333
vt 0.916667 0.916667
vt 0.916667 1.000000
vt 0.916667 0.000000
vt 0.916667 0.083333
vt 0.916667 0.166667
vt 0.916667 0.250000
vt 0.916667 0.333333
vt 0.916667 0.416667
vt 0.937500 0.500000
vt 0.937500 0.583333
vt 0.937500 0.666667
vt 0.937500 0.750000
vt 0.937500 0.833333
vt 0.937500 0.916667
vt 0.937500 1.000000
vt 0.937500 0.000000
vt 0.937500 0.083333
vt 0.937500 0.166667
vt 0.937500 0.250000
vt 0.937500 0.333333
vt 0.937500 0.416667
vt 0.958333 0.500000
vt 0.958333 0.583333
vt 0.958333 0.666667
vt 0.958333 0.750000
vt 0.958333 0.833333
vt 0.958333 0.916667
vt 0.958333 1.000000
vt 0.958333 0.000000
vt 0.958333 0.083333
vt 0.958333 0.166667
vt 0.958333 0.250000
vt 0.958333 0.333333
vt 0.958333 0.416667
vt 0.979167 0.500000
vt 0.979167 0.583333
vt 0.979167 0.666667
vt 0.979167 0.750000
vt 0.979167 0.833333
vt 0.979167 0.916667
vt 0.979167 1.000000
vt 0.979167 0.000000
vt 0.979167 0.083333
vt 0.979167 0.166667
vt 0.979167 0.250000
vt 0.979167 0.333333
vt 0.979167 0.416667
vt 1.000000 0.500000
vt 1.000000 0.583333
vt 1.000000 0.666667
vt 1.000000 0.750000
vt 1.000000 0.833333
vt 1.000000 0.916667
vt 1.000000 1.000000
vt 1.000000 0.000000
vt 1.000000 0.083333
vt 1.000000 0.166667
vt 1.000000 0.250000
vt 1.000000 0.333333
vt 1.000000 0.416667
vn 1.0000 0.0000 0.0000
vn -0.0632 0.2583 -0.9640
vn -0.0463 0.7063 -0.7063
vn -0.0170 0.9658 -0.2588
vn 0.0170 0.9658 0.2588
vn 0.0463 0.7063 0.7063
vn 0.0632 0.2583 0.9640
vn 0.0632 -0.2583 0.9640
vn 0.0463 -0.7063 0.7063
vn 0.0170 -0.9658 0.2588
vn -0.0170 -0.9658 -0.2588
vn -0.0463 -0.7063 -0.7063
vn -0.0632 -0.2583 -0.9640
vn -0.1885 0.2583 -0.9475
vn -0.1381 0.7063 -0.6943
vn -0.0506 0.9658 -0.2544
vn 0.0506 0.9658 0.2544
vn 0.1381 0.7063 0.6943
vn 0.1885 0.2583 0.9475
vn 0.1885 -0.2583 0.9475
vn 0.1381 -0.7063 0.6943
vn 0.0506 -0.9658 0.2544
vn -0.0506 -0.9658 -0.2544
vn -0.1381 -0.7063 -0.6943
vn -0.1885 -0.2583 -0.9475
vn -0.3105 0.2583 -0.9148
vn -0.2275 0.7063 -0.6703
vn -0.0834 0.9658 -0.2456
vn 0.0834 0.9658 0.2456
vn 0.2275 0.7063 0.6703
vn 0.3105 0.2583 0.9148
vn 0.3105 -0.2583 0.9148
vn 0.2275 -0.7063 0.6703
vn 0.0834 -0.9658 0.2456
vn -0.0834 -0.9658 -0.2456
vn -0.2275 -0.7063 -0.6703
vn -0.3105 -0.2583 -0.9148
vn -0.4273 0.2583 -0.8664
vn -0.3131 0.7063 -0.6349
vn -0.1147 0.9658 -0.2326
vn 0.1147 0.9658 0.2326
vn 0.3131 0.7063 0.6349
vn 0.4273 0.2583 0.8664
vn 0.4273 -0.2583 0.8664
vn 0.3131 -0.7063 0.6349
vn 0.1147 -0.9658 0.2326
vn -0.1147 -0.9658 -0.2326
vn -0.3131 -0.7063 -0.6349
vn -0.4273 -0.2583 -0.8664
vn -0.5367 0.2583 -0.8033
vn -0.3933 0.7063 -0.5886
vn -0.1441 0.9658 -0.2156
vn 0.1441 0.9658 0.2156
vn 0.3933 0.7063 0.5886
vn 0.5367 0.2583 0.8033
vn 0.5367 -0.2583 0.8033
vn 0.3933 -0.7063 0.5886
vn 0.1441 -0.9658 0.2156
vn -0.1441 -0.9658 -0.2156
vn -0.3933 -0.7063 -0.5886
vn -0.5367 -0.2583 -0.8033
vn -0.6370 0.2583 -0.7263
vn -0.4667 0.7063 -0.5322
vn -0.1710 0.9658 -0.1950
vn 0.1710 0.9658 0.1950
vn 0.4667 0.7063 0.5322
vn 0.6370 0.2583 0.7263
vn 0.6370 -0.2583 0.7263
vn 0.4667 -0.7063 0.5322
vn 0.1710 -0.9658 0.1950
vn -0.1710 -0.9658 -0.1950
vn -0.4667 -0.7063 -0.5322
vn -0.6370 -0.2583 -0.7263
vn -0.7263 0.2583 -0.6370
vn -0.5322 0.7063 -0.4667
vn -0.1950 0.9658 -0.1710
vn 0.1950 0.9658 0.1710
vn 0.5322 0.7063 0.4667
vn 0.7263 0.2583 0.6370
vn 0.7263 -0.2583 0.6370
vn 0.5322 -0.7063 0.4667
vn 0.1950 -0.9658 0.1710
vn -0.1950 -0.9658 -0.1710
vn -0.5322 -0.7063 -0.4667
vn -0.7263 -0.2583 -0.6370
vn -0.8033 0.2583 -0.5367
vn -0.5886 0.7063 -0.3933
vn -0.2156 0.9658 -0.1441
vn 0.2156 0.9658 0.1441
vn 0.5886 0.7063 0.3933
vn 0.8033 0.2583 0.5367
vn 0.8033 -0.2583 0.5367
vn 0.5886 -0.7063 0.3933
vn 0.2156 -0.9658 0.1441
vn -0.2156 -0.9658 -0.1441
vn -0.5886 -0.7063 -0.3933
vn -0.8033 -0.2583 -0.5367
vn -0.8664 0.2583 -0.4273
vn -0.6349 0.7063 -0.3131
vn -0.2326 0.9658 -0.1147
vn 0.2326 0.9658 0.1147
vn 0.6349 0.7063 0.3131
vn 0.8664 0.2583 0.4273
vn 0.8664 -0.2583 0.4273
vn 0.6349 -0.7063 0.3131
vn 0.2326 -0.9658 0.1147
vn -0.2326 -0.9658 -0.1147
vn -0.6349 -0.7063 -0.3131
vn -0.8664 -0.2583 -0.4273
vn -0.9148 0.2583 -0.3105
vn -0.6703 0.7063 -0.2275
vn -0.2456 0.9658 -0.0834
vn 0.2456 0.9658 0.0834
vn 0.6703 0.7063 0.2275
vn 0.9148 0.2583 0.3105
vn 0.9148 -0.2583 0.3105
vn 0.6703 -0.7063 0.2275
vn 0.2456 -0.9658 0.0834
vn -0.2456 -0.9658 -0.0834
vn -0.6703 -0.7063 -0.2275
vn -0.9148 -0.2583 -0.3105
vn -0.9475 0.2583 -0.1885
vn -0.6943 0.7063 -0.1381
vn -0.2544 0.9658 -0.0506
vn 0.2544 0.9658 0.0506
vn 0.6943 0.7063 0.1381
vn 0.9475 0.2583 0.1885
vn 0.9475 -0.2583 0.1885
vn 0.6943 -0.7063 0.1381
vn 0.2544 -0.9658 0.0506
vn -0.2544 -0.9658 -0.0506
vn -0.6943 -0.7063 -0.1381
vn -0.9475 -0.2583 -0.1885
vn -0.9640 0.2583 -0.0632
vn -0.7063 0.7063 -0.0463
vn -0.2588 0.9658 -0.0170
vn 0.2588 0.9658 0.0170
vn 0.7063 0.7063 0.0463
vn 0.9640 0.2583 0.0632
vn 0.9640 -0.2583 0.0632
vn 0.7063 -0.7063 0.0463
vn 0.2588 -0.9658 0.0170
vn -0.2588 -0.9658 -0.0170
vn -0.7063 -0.7063 -0.0463
vn -0.9640 -0.2583 -0.0632
vn -0.0000 0.0000 1.0000
usemtl None
s off
f 1/1/1 2/2/1 3/3/1 4/4/1 5/5/1 6/6/1 7/7/1 8/8/1 9/9/1 10/10/1 11/11/1 12/12/1
f 1/1/2 13/13/2 14/14/2 2/2/2
f 2/2/3 14/14/3 15/15/3 3/3/3
f 3/3/4 15/15/4 16/16/4 4/4/4
f 4/4/5 16/16/5 17/17/5 5/5/5
f 5/5/6 17/17/6 18/18/6 6/6/6
f 6/6/7 18/18/7 19/19/7 7/20/7
f 7/7/8 19/21/8 20/22/8 8/8/8
f 8/8/9 20/22/9 21/23/9 9/9/9
f 9/9/10 21/23/10 22/24/10 10/10/10
f 10/10/11 22/24/11 23/25/11 11/11/11
f 11/11/12 23/25/12 24/26/12 12/12/12
f 12/12/13 24/26/13 13/13/13 1/1/13
f 13/13/14 25/27/14 26/28/14 14/14/14
f 14/14/15 26/28/15 27/29/15 15/15/15
f 15/15/16 27/29/16 28/30/16 16/16/16
f 16/16/17 28/30/17 29/31/17 17/17/17
f 17/17/18 29/31/18 30/32/18 18/18/18
f 18/18/19 30/32/19 31/33/19 19/19/19
f 19/21/20 31/34/20 32/35/20 20/22/20
f 20/22/21 32/35/21 33/36/21 21/23/21
f 21/23/22 33/36/22 34/37/22 22/24/22
f 22/24/23 34/37/23 35/38/23 23/25/23
f 23/25/24 35/38/24 36/39/24 24/26/24
f 24/26/25 36/39/25 25/27/25 13/13/25
f 25/27/26 37/40/26 38/41/26 26/28/26
f 26/28/27 38/41/27 39/42/27 27/29/27
f 27/29/28 39/42/28 40/43/28 28/30/28
f 28/30/29 40/43/29 41/44/29 29/31/29
f 29/31/30 41/44/30 42/45/30 30/32/30
f 30/32/31 42/45/31 43/46/31 31/33/31
f 31/34/32 43/47/32 44/48/32 32/35/32
f 32/35/33 44/48/33 45/49/33 33/36/33
f 33/36/34 45/49/34 46/50/34 34/37/34
f 34/37/35 46/50/35 47/51/35 35/38/35
f 35/38/36 47/51/36 48/52/36 36/39/36
f 36/39/37 48/52/37 37/40/37 25/27/37
f 37/40/38 49/53/38 50/54/38 38/41/38
f 38/41/39 50/54/39 51/55/39 39/42/39
f 39/42/40 51/55/40 52/56/40 40/43/40
f 40/43/41 52/56/41 53/57/41 41/44/41
f 41/44/42 53/57/42 54/58/42 42/45/42
f 42/45/43 54/58/43 55/59/43 43/46/43
f 43/47/44 55/60/44 56/61/44 44/48/44
f 44/48/45 56/61/45 57/62/45 45/49/45
f 45/49/46 57/62/46 58/63/46 46/50/46
f 46/50/47 58/63/47 59/64/47 47/51/47
f 47/51/48 59/64/48 60/65/48 48/52/48
f 48/52/49 60/65/49 49/53/49 37/40/49
f 49/53/50 61/66/50 62/67/50 50/54/50
f 50/54/51 62/67/51 63/68/51 51/55/51
f 51/55/52 63/68/52 64/69/52 52/56/52
f 52/56/53 64/69/53 65/70/53 53/57/53
f 53/57/54 65/70/54 66/71/54 54/58/54
f 54/58/55 66/71/55 67/72/55 55/59/55
f 55/60/56 67/73/56 68/74/56 56/61/56
f 56/61/57 68/74/57 69/75/57 57/62/57
f 57/62/58 69/75/58 70/76/58 58/63/58
f 58/63/59 70/76/59 71/77/59 59/64/59
f 59/64/60 71/77/60 72/78/60 60/65/60
f 60/65/61 72/78/61 61/66/61 49/53/61
f 61/66/62 73/79/62 74/80/62 62/67/62
f 62/67/63 74/80/63 75/81/63 63/68/63
f 63/68/64 75/81/64 76/82/64 64/69/64
f 64/69/65 76/82/65 77/83/65 65/70/65
f 65/70/66 77/83/66 78/84/66 66/71/66
f 66/71/67 78/84/67 79/85/67 67/72/67
f 67/73/68 79/86/68 80/87/68 68/74/68
f 68/74/69 80/87/69 81/88/69 69/75/69
f 69/75/70 81/88/70 82/89/70 70/76/70
f 70/76/71 82/89/71 83/90/71 71/77/71
f 71/77/72 83/90/72 84/91/72 72/78/72
f 72/78/73 84/91/73 73/79/73 61/66/73
f 73/79/74 85/92/74 86/93/74 74/80/74
f 74/80/75 86/93/75 87/94/75 75/81/75
f 75/81/76 87/94/76 88/95/76 76/82/76
f 76/82/77 88/95/77 89/96/77 77/83/77
f 77/83/78 89/96/78 90/97/78 78/84/78
f 78/84/79 90/97/79 91/98/79 79/85/79
f 79/86/80 91/99/80 92/100/80 80/87/80
f 80/87/81 92/100/81 93/101/81 81/88/81
f 81/88/82 93/101/82 94/102/82 82/89/82
f 82/89/83 94/102/83 95/103/83 83/90/83
f 83/90/84 95/103/84 96/104/84 84/91/84
f 84/91/85 96/104/85 85/92/85 73/79/85
f 85/92/86 97/105/86 98/106/86 86/93/86
f 86/93/87 98/106/87 99/107/87 87/94/87
f 87/94/88 99/107/88 100/108/88 88/95/88
f 88/95/89 100/108/89 101/109/89 89/96/89
f 89/96/90 101/109/90 102/110/90 90/97/90
f 90/97/91 102/110/91 103/111/91 91/98/91
f 91/99/92 103/112/92 104/113/92 92/100/92
f 92/100/93 104/113/93 105/114/93 93/101/93
f 93/101/94 105/114/94 106/115/94 94/102/94
f 94/102/95 106/115/95 107/116/95 95/103/95
f 95/103/96 107/116/96 108/117/96 96/104/96
f 96/104/97 108/117/97 97/105/97 85/92/97
f 97/105/98 109/118/98 110/119/98 98/106/98
f 98/106/99 110/119/99 111/120/99 99/107/99
f 99/107/100 111/120/100 112/121/100 100/108/100
f 100/108/101 112/121/101 113/122/101 101/109/101
f 101/109/102 113/122/102 114/123/102 102/110/102
f 102/110/103 114/123/103 115/124/103 103/111/103
f 103/112/104 115/125/104 116/126/104 104/113/104
f 104/113/105 116/126/105 117/127/105 105/114/105
f 105/114/106 117/127/106 118/128/106 106/115/106
f 106/115/107 118/128/107 119/129/107 107/116/107
f 107/116/108 119/129/108 120/130/108 108/117/108
f 108/117/109 120/130/109 109/118/109 97/105/109
f 109/118/110 121/131/110 122/132/110 110/119/110
f 110/119/111 122/132/111 123/133/111 111/120/111
f 111/120/112 123/133/112 124/134/112 112/121/112
f 112/121/113 124/134/113 125/135/113 113/122/113
f 113/122/114 125/135/114 126/136/114 114/123/114
f 114/123/115 126/136/115 127/137/115 115/124/115
f 115/125/116 127/138/116 128/139/116 116/126/116
f 116/126/117 128/139/117 129/140/117 117/127/117
f 117/127/118 129/140/118 130/141/118 118/128/118
f 118/128/119 130/141/119 131/142/119 119/129/119
f 119/129/120 131/142/120 132/143/120 120/130/120
f 120/130/121 132/143/121 121/131/121 109/118/121
f 121/131/122 133/144/122 134/145/122 122/132/122
f 122/132/123 134/145/123 135/146/123 123/133/123
f 123/133/124 135/146/124 136/147/124 124/134/124
f 124/134/125 136/147/125 137/148/125 125/135/125
f 125/135/126 137/148/126 138/149/126 126/136/126
f 126/136/127 138/149/127 139/150/127 127/137/127
f 127/138/128 139/151/128 140/152/128 128/139/128
f 128/139/129 140/152/129 141/153/129 129/140/129
f 129/140/130 141/153/130 142/154/130 130/141/130
f 130/141/131 142/154/131 143/155/131 131/142/131
f 131/142/132 143/155/132 144/156/132 132/143/132
f 132/143/133 144/156/133 133/144/133 121/131/133
f 133/144/134 145/157/134 146/158/134 134/145/134
f 134/145/135 146/158/135 147/159/135 135/146/135
f 135/146/136 147/159/136 148/160/136 136/147/136
f 136/147/137 148/160/137 149/161/137 137/148/137
f 137/148/138 149/161/138 150/162/138 138/149/138
f 138/149/139 150/162/139 151/163/139 139/150/139
f 139/151/140 151/164/140 152/165/140 140/152/140
f 140/152/141 152/165/141 153/166/141 141/153/141
f 141/153/142 153/166/142 154/167/142 142/154/142
f 142/154/143 154/167/143 155/168/143 143/155/143
f 143/155/144 155/168/144 156/169/144 144/156/144
f 144/156/145 156/169/145 145/157/145 133/144/145
f 146/158/146 145/157/146 156/169/146 155/168/146 154/167/146 153/166/146 152/165/146 151/164/146 150/162/146 149/161/146 148/160/146 147/159/146
